# xmcd
#
# Track frame offsets: 
#        150
#        23785
#        51310
#        81910
#        108429
#        114535
#        144610
#        179035
#        205735
#        241485
#        265160
#        296837
#
# Disc length: 4339 seconds
#
# Revision: 5
# Processed by: cddbd v1.5.1PL0 Copyright (c) Steve Scherf et al.
# Submitted via: ExactAudioCopy v0.90b4
#
DISCID=b710f10c
DTITLE=Natacha Atlas - Diaspora
DYEAR=1995
DGENRE=Electronic
TTITLE0=Iskanderia
TTITLE1=Leysh Nat'arak
TTITLE2=Diaspora
TTITLE3=Yalla Chant
TTITLE4=Alhambra Pt. 1
TTITLE5=Duden
TTITLE6=Feres
TTITLE7=Fun Does Not Exist
TTITLE8=Dub Yalil
TTITLE9=Iskanderia [Atlas Zamalek]
TTITLE10=Diaspora [Ballon Theatre Remix]
TTITLE11=Fun Does Not Exist [Dolmus Remix]
EXTD=
EXTT0=
EXTT1=
EXTT2=
EXTT3=
EXTT4=
EXTT5=
EXTT6=
EXTT7=
EXTT8=
EXTT9=
EXTT10=
EXTT11=
PLAYORDER=
